<svg width="20" height="19" viewBox="0 0 20 19" fill="none" xmlns="http://www.w3.org/2000/svg">
<path d="M18.096 2.34998C17.11 1.14798 15.687 0.508 13.981 0.5C13.974 0.5 13.966 0.5 13.959 0.5C11.978 0.5 10.683 1.73703 10.001 2.84003C9.31903 1.73703 8.02402 0.5 6.04302 0.5C6.03502 0.5 6.02705 0.5 6.02105 0.5C4.31705 0.508 2.89501 1.14801 1.90801 2.35101C0.67701 3.85201 0.217006 6.17397 0.679006 8.56097C1.88801 14.792 9.472 18.309 9.794 18.456C9.859 18.486 9.93103 18.501 10.001 18.501C10.071 18.501 10.1431 18.486 10.2081 18.456C10.5301 18.309 18.1141 14.793 19.3221 8.56097C19.7851 6.17197 19.327 3.85098 18.096 2.34998ZM18.339 8.37C17.336 13.548 11.2111 16.84 10.0001 17.444C8.78905 16.84 2.66408 13.548 1.66008 8.37C1.25308 6.272 1.6341 4.25899 2.6801 2.98499C3.4831 2.00599 4.6081 1.507 6.0241 1.5C6.0311 1.5 6.037 1.5 6.044 1.5C8.6 1.5 9.49003 4.03897 9.52703 4.14697C9.66403 4.55297 10.338 4.55297 10.474 4.14697C10.511 4.03897 11.4021 1.5 13.9571 1.5C13.9641 1.5 13.9701 1.5 13.9771 1.5C15.3951 1.507 16.521 2.00599 17.323 2.98499C18.3671 4.25699 18.747 6.271 18.339 8.37Z" fill="#25314C"/>
</svg>
