<svg width="20" height="20" viewBox="0 0 20 20" fill="none" xmlns="http://www.w3.org/2000/svg">
<path d="M8.51794 12.5V15.5C8.51794 15.776 8.29394 16 8.01794 16C7.74194 16 7.51794 15.776 7.51794 15.5V12.5C7.51794 12.224 7.74194 12 8.01794 12C8.29394 12 8.51794 12.224 8.51794 12.5ZM12.0179 12C11.7419 12 11.5179 12.224 11.5179 12.5V15.5C11.5179 15.776 11.7419 16 12.0179 16C12.2939 16 12.5179 15.776 12.5179 15.5V12.5C12.5179 12.224 12.2939 12 12.0179 12ZM17.991 9.29302L17.286 16.349C17.074 18.469 15.935 19.5 13.804 19.5H6.23401C3.39401 19.5 2.88595 17.701 2.75195 16.349L2.04797 9.31001C1.14097 8.93501 0.500977 8.04102 0.500977 7.00002C0.500977 5.62202 1.62198 4.50002 3.00098 4.50002H5.29895L7.573 0.741014C7.717 0.504014 8.02501 0.430023 8.26001 0.572023C8.49601 0.715023 8.57195 1.02202 8.42896 1.25902L6.46802 4.50002H13.502L11.572 1.25601C11.43 1.01901 11.509 0.712024 11.746 0.570024C11.98 0.430024 12.288 0.50602 12.432 0.74402L14.666 4.50002H17C18.379 4.50002 19.5 5.62202 19.5 7.00002C19.5 8.02602 18.878 8.90802 17.991 9.29302ZM16.292 16.249L16.967 9.50002H3.07104L3.74597 16.249C3.88597 17.639 4.35001 18.5 6.23401 18.5H13.804C15.682 18.5 16.156 17.6 16.292 16.249ZM18.5 7.00002C18.5 6.17302 17.827 5.50002 17 5.50002H3C2.173 5.50002 1.5 6.17302 1.5 7.00002C1.5 7.82702 2.173 8.50002 3 8.50002H17C17.827 8.50002 18.5 7.82702 18.5 7.00002Z" fill="#25314C"/>
</svg>
