<svg width="19" height="19" viewBox="0 0 19 19" fill="none" xmlns="http://www.w3.org/2000/svg">
<path d="M0 2.5C0 2.224 0.224 2 0.5 2H5V0.5C5 0.224 5.224 0 5.5 0C5.776 0 6 0.224 6 0.5V4.5C6 4.776 5.776 5 5.5 5C5.224 5 5 4.776 5 4.5V3H0.5C0.224 3 0 2.776 0 2.5ZM9.5 3H18.5C18.776 3 19 2.776 19 2.5C19 2.224 18.776 2 18.5 2H9.5C9.224 2 9 2.224 9 2.5C9 2.776 9.224 3 9.5 3ZM0.5 10H9.5C9.776 10 10 9.776 10 9.5C10 9.224 9.776 9 9.5 9H0.5C0.224 9 0 9.224 0 9.5C0 9.776 0.224 10 0.5 10ZM18.5 9H14V7.5C14 7.224 13.776 7 13.5 7C13.224 7 13 7.224 13 7.5V11.5C13 11.776 13.224 12 13.5 12C13.776 12 14 11.776 14 11.5V10H18.5C18.776 10 19 9.776 19 9.5C19 9.224 18.776 9 18.5 9ZM5.5 14C5.224 14 5 14.224 5 14.5V16H0.5C0.224 16 0 16.224 0 16.5C0 16.776 0.224 17 0.5 17H5V18.5C5 18.776 5.224 19 5.5 19C5.776 19 6 18.776 6 18.5V14.5C6 14.224 5.776 14 5.5 14ZM18.5 16H9.5C9.224 16 9 16.224 9 16.5C9 16.776 9.224 17 9.5 17H18.5C18.776 17 19 16.776 19 16.5C19 16.224 18.776 16 18.5 16Z" fill="black"/>
</svg>
