<svg width="28" height="33" viewBox="0 0 28 33" fill="none" xmlns="http://www.w3.org/2000/svg">
<path fill-rule="evenodd" clip-rule="evenodd" d="M20.7466 11.9244C22.8647 13.4947 25.4013 14.3337 28 14.3236V8.95236C27.4891 8.95383 26.9796 8.8968 26.4807 8.78227V13.0613C23.8761 13.0661 21.3358 12.2175 19.2187 10.6353V21.6821C19.2123 23.4948 18.7356 25.2718 17.8393 26.8249C16.9429 28.3779 15.6602 29.6491 14.1273 30.5035C12.5943 31.3579 10.8682 31.7637 9.13203 31.678C7.39583 31.5922 5.71424 31.0181 4.26558 30.0164C5.60555 31.4303 7.31772 32.3977 9.18525 32.7962C11.0528 33.1946 12.9917 33.0062 14.7565 32.2546C16.5212 31.5031 18.0325 30.2224 19.0988 28.5746C20.1651 26.9267 20.7386 24.986 20.7466 22.998V11.9244ZM22.6265 6.4458C21.5494 5.22825 20.8885 3.67348 20.7466 2.02352V1.32527H19.3045C19.4828 2.37406 19.8707 3.37199 20.443 4.25419C21.0154 5.13639 21.7593 5.88311 22.6265 6.4458ZM7.60471 25.7642C7.10488 25.0826 6.79857 24.2683 6.72065 23.414C6.64272 22.5598 6.79631 21.6999 7.16393 20.9322C7.53155 20.1645 8.09843 19.5198 8.80006 19.0716C9.50169 18.6234 10.3099 18.3895 11.1327 18.3967C11.5869 18.3966 12.0385 18.469 12.4718 18.6116V13.0613C11.9653 12.9914 11.4546 12.9615 10.9438 12.9718V17.2867C9.88898 16.9389 8.74726 17.018 7.74576 17.5082C6.74427 17.9983 5.95638 18.8637 5.5388 19.9321C5.12122 21.0005 5.10456 22.1937 5.49212 23.2743C5.87968 24.3549 6.64307 25.2438 7.63046 25.7642H7.60471Z" fill="black"/>
<path fill-rule="evenodd" clip-rule="evenodd" d="M19.218 10.5995C21.3351 12.1817 23.8753 13.0303 26.4799 13.0255V8.74647C24.9959 8.41925 23.6479 7.61454 22.6258 6.4458C21.7586 5.88311 21.0146 5.13639 20.4423 4.25419C19.87 3.37199 19.4821 2.37406 19.3038 1.32527H15.5097V22.998C15.5062 23.9573 15.2147 24.8914 14.6761 25.6691C14.1376 26.4468 13.379 27.0291 12.5069 27.3343C11.6348 27.6394 10.693 27.6521 9.81363 27.3705C8.93428 27.0889 8.16157 26.5272 7.60397 25.7642C6.72028 25.2992 6.01259 24.5373 5.59506 23.6014C5.17754 22.6654 5.07454 21.6101 5.30268 20.6057C5.53082 19.6012 6.07679 18.7062 6.85252 18.0651C7.62824 17.4239 8.58846 17.074 9.57826 17.0718C10.0324 17.0733 10.4838 17.1457 10.9173 17.2867V12.9718C9.04399 13.0187 7.22453 13.635 5.68231 14.7451C4.14009 15.8552 2.94223 17.4107 2.23576 19.2208C1.5293 21.0309 1.34498 23.0166 1.70543 24.9344C2.06588 26.8522 2.95542 28.6184 4.26484 30.0164C5.7138 31.0253 7.39803 31.6053 9.13813 31.6949C10.8782 31.7844 12.609 31.38 14.1462 30.5247C15.6833 29.6694 16.9692 28.3953 17.8669 26.8382C18.7645 25.281 19.2404 23.499 19.2437 21.6821L19.218 10.5995Z" fill="black"/>
<path fill-rule="evenodd" clip-rule="evenodd" d="M26.4799 8.74647L26.4804 7.59129C25.1176 7.59733 23.7814 7.20036 22.6265 6.4458C23.646 7.61791 24.9945 8.42328 26.4799 8.74647ZM19.3045 1.32527C19.3045 1.11937 19.2442 0.904151 19.2184 0.698255V0H13.9823V21.6817C13.9777 22.8958 13.5115 24.0583 12.6859 24.9143C11.8603 25.7702 10.7429 26.2496 9.57874 26.2472C8.89328 26.2508 8.21701 26.0855 7.60471 25.7642C8.16231 26.5272 8.93428 27.0889 9.81363 27.3705C10.693 27.6521 11.6348 27.6394 12.5069 27.3343C13.379 27.0291 14.1376 26.4468 14.6761 25.6691C15.2147 24.8914 15.5062 23.9573 15.5097 22.998V1.32527H19.3045ZM10.9178 12.9625V11.7361C8.76317 11.4308 6.57291 11.8956 4.70399 13.0547C2.83508 14.2139 1.39771 15.999 0.626144 18.1191C-0.145421 20.2392 -0.205686 22.5694 0.455169 24.7298C1.11602 26.8902 2.45929 28.7539 4.26558 30.0164C2.96606 28.6152 2.08575 26.8492 1.73265 24.935C1.37956 23.0207 1.56873 21.0406 2.27704 19.2366C2.98535 17.4327 4.18213 15.8829 5.72119 14.7766C7.26025 13.6704 9.07494 13.0555 10.9436 13.0072L10.9178 12.9625Z" fill="black"/>
</svg>
