<svg width="16" height="20" viewBox="0 0 16 20" fill="none" xmlns="http://www.w3.org/2000/svg">
<path d="M8.00903 8.5C10.215 8.5 12.009 6.706 12.009 4.5C12.009 2.294 10.215 0.5 8.00903 0.5C5.80303 0.5 4.00903 2.294 4.00903 4.5C4.00903 6.706 5.80303 8.5 8.00903 8.5ZM8.00903 1.5C9.66303 1.5 11.009 2.846 11.009 4.5C11.009 6.154 9.66303 7.5 8.00903 7.5C6.35503 7.5 5.00903 6.154 5.00903 4.5C5.00903 2.846 6.35403 1.5 8.00903 1.5ZM10 10.5H6C1.94 10.5 0.5 13.473 0.5 16.019C0.5 18.296 1.71105 19.5 4.00305 19.5H11.9969C14.2889 19.5 15.5 18.296 15.5 16.019C15.5 13.473 14.06 10.5 10 10.5ZM11.9969 18.5H4.00305C2.27205 18.5 1.5 17.735 1.5 16.019C1.5 14.959 1.824 11.5 6 11.5H10C14.283 11.5 14.5 15.264 14.5 16.019C14.5 17.735 13.7289 18.5 11.9969 18.5Z" fill="#25314C"/>
</svg>
