<svg width="19" height="19" viewBox="0 0 19 19" fill="none" xmlns="http://www.w3.org/2000/svg">
<path id="arrow-down-arrow-up" d="M18.8533 4.85362C18.7553 4.95162 18.6273 4.99961 18.4993 4.99961C18.3713 4.99961 18.2433 4.95062 18.1453 4.85362L14.9993 1.70762V14.4996C14.9993 14.7756 14.7753 14.9996 14.4993 14.9996C14.2233 14.9996 13.9993 14.7756 13.9993 14.4996V1.70665L10.8533 4.85264C10.6583 5.04764 10.3412 5.04764 10.1462 4.85264C9.95125 4.65764 9.95125 4.34061 10.1462 4.14561L14.1462 0.145611C14.1922 0.0996108 14.2483 0.0627007 14.3093 0.0377007C14.4313 -0.0132993 14.5692 -0.0132993 14.6912 0.0377007C14.7532 0.0627007 14.8083 0.0996108 14.8543 0.145611L18.8543 4.14561C19.0483 4.34161 19.0483 4.65762 18.8533 4.85362ZM8.14527 14.1456L4.99928 17.2916V4.49961C4.99928 4.22361 4.77528 3.99961 4.49928 3.99961C4.22328 3.99961 3.99928 4.22361 3.99928 4.49961V17.2926L0.853281 14.1466C0.658281 13.9516 0.34125 13.9516 0.14625 14.1466C-0.04875 14.3416 -0.04875 14.6586 0.14625 14.8536L4.14625 18.8536C4.19225 18.8996 4.24834 18.9365 4.30934 18.9615C4.37034 18.9865 4.43525 19.0006 4.50025 19.0006C4.56525 19.0006 4.63017 18.9875 4.69117 18.9615C4.75317 18.9365 4.80826 18.8996 4.85426 18.8536L8.85426 14.8536C9.04926 14.6586 9.04926 14.3416 8.85426 14.1466C8.65926 13.9516 8.34127 13.9506 8.14527 14.1456Z" fill="black"/>
</svg>
